<?xml version="1.0" encoding="utf-8"?>
<!-- Generator: Adobe Illustrator 19.2.1, SVG Export Plug-In . SVG Version: 6.00 Build 0)  -->
<svg version="1.1" id="Layer_2" xmlns="http://www.w3.org/2000/svg" xmlns:xlink="http://www.w3.org/1999/xlink" x="0px" y="0px"
	 viewBox="0 0 80.3 80.3" style="enable-background:new 0 0 80.3 80.3;" xml:space="preserve">
<style type="text/css">
	.st0{fill:#EB6A5C;}
	.st1{fill:#552F2F;}
	.st2{fill:#55AB99;}
	.st3{fill:#2F4555;}
	.st4{fill:#FFFFFF;}
	.st5{fill:#ED6B5A;}
	.st6{fill:#0C2C48;}
	.st7{fill:#F1CC4B;}
	.st8{clip-path:url(#SVGID_2_);}
	.st9{clip-path:url(#SVGID_2_);fill:#F6A09C;}
	.st10{fill:#50646F;}
	.st11{fill:#FCA886;}
	.st12{fill:#EDAB7E;}
	.st13{fill:#332319;}
	.st14{fill:#E07E45;}
	.st15{fill:#FF8F8F;}
	.st16{fill:#A6D1D9;}
	.st17{fill:#628185;}
	.st18{fill:#BABABA;}
	.st19{fill:#698391;}
	.st20{opacity:0.41;fill:#FFFFFF;}
	.st21{fill:#F6A09C;}
	.st22{fill:#FFF3C9;}
	.st23{fill:#2384AB;}
	.st24{fill:#BABFC5;}
	.st25{clip-path:url(#SVGID_4_);}
	.st26{fill:#6EB9E0;}
	.st27{fill:#F8A06D;}
	.st28{fill:#A3B9C4;}
	.st29{fill:#3B4A52;}
	.st30{clip-path:url(#SVGID_6_);}
	.st31{clip-path:url(#SVGID_8_);fill:#F6A09C;}
	.st32{opacity:0.21;fill:#FFFFFF;}
	.st33{clip-path:url(#SVGID_10_);fill:#F6A09C;}
	.st34{clip-path:url(#SVGID_12_);}
	.st35{fill:#FFD3B5;}
	.st36{fill:#BFD9E6;}
	.st37{fill:#798287;}
	.st38{fill:#A4A8AD;}
	.st39{fill:#FFD6BA;}
	.st40{fill:none;stroke:#0C2C48;stroke-width:1.4;stroke-miterlimit:10;}
</style>
<g>
	<g>
		<circle class="st5" cx="40.2" cy="40.2" r="40.2"/>
	</g>
	<g>
		<g>
			<g>
				<g>
					<g>
						<g>
							<path class="st6" d="M67.7,56.2c0,0.7-0.5,1.2-1.2,1.2H13.8c-0.7,0-1.2-0.5-1.2-1.2V17.4c0-0.7,0.5-1.2,1.2-1.2h52.8
								c0.7,0,1.2,0.5,1.2,1.2V56.2z"/>
						</g>
						<g>
							<rect x="29.8" y="56.3" class="st18" width="20.7" height="7"/>
						</g>
					</g>
				</g>
				<g>
					<path class="st4" d="M55.6,68.1v-2.2c0-1.7-1.3-3-3-3h-25c-1.7,0-3,1.3-3,3v2.2H55.6z"/>
				</g>
				<g>
					<g>
						<rect x="15.5" y="18.6" class="st10" width="49.2" height="30.5"/>
					</g>
					<g>
						<rect x="15.5" y="18.6" class="st27" width="49.2" height="5.8"/>
					</g>
				</g>
				<g>
					<path class="st4" d="M12.6,48.1v8.1c0,0.7,0.5,1.2,1.2,1.2h52.8c0.7,0,1.2-0.5,1.2-1.2v-8.1H12.6z"/>
				</g>
			</g>
			<g>
				<circle class="st6" cx="40.1" cy="52.5" r="1.5"/>
			</g>
		</g>
		<g>
			<g>
				<polygon class="st35" points="48.6,30.7 51.6,25 45.8,28 				"/>
			</g>
			<g>
				<polygon class="st6" points="50.4,27.2 51.6,25 49.3,26.2 				"/>
			</g>
			<g>
				<path class="st14" d="M48.6,29.8c-0.2-0.2-0.6-0.2-0.9,0.1l0,0c0.3-0.3,0.3-0.7,0.1-0.9c-0.2-0.2-0.6-0.2-0.9,0.1l0,0
					c0.3-0.3,0.3-0.7,0.1-0.9c-0.2-0.2-0.6-0.2-0.9,0.1l0,0L29.9,44c-0.3,0.3-0.3,0.7-0.1,0.9l2,2c0.2,0.2,0.6,0.2,0.9-0.1l15.9-16
					l0,0C48.8,30.4,48.8,30,48.6,29.8z"/>
			</g>
			<g>
				<path class="st15" d="M31.5,42.4L29.9,44c-0.3,0.3-0.3,0.7-0.1,0.9l2,2c0.2,0.2,0.6,0.2,0.9-0.1l1.6-1.6L31.5,42.4z"/>
			</g>
			<g>
				<g>
					
						<rect x="31.7" y="40.2" transform="matrix(0.7057 -0.7085 0.7085 0.7057 -19.844 36.7785)" class="st16" width="5.3" height="4.1"/>
				</g>
				<g>
					<g>
						
							<rect x="33.2" y="41.2" transform="matrix(0.7057 -0.7085 0.7085 0.7057 -20.8572 36.3619)" class="st17" width="0.4" height="4.1"/>
					</g>
					<g>
						
							<rect x="34.2" y="40.2" transform="matrix(0.7057 -0.7085 0.7085 0.7057 -19.8438 36.7788)" class="st17" width="0.4" height="4.1"/>
					</g>
					<g>
						<polygon class="st17" points="34,39.7 36.9,42.6 36.7,42.8 33.8,39.9 						"/>
					</g>
				</g>
			</g>
		</g>
		<g>
			<path class="st6" d="M65.3,24.6H15v-6.8h50.2V24.6z M16,23.6h48.2v-4.8H16V23.6z"/>
		</g>
	</g>
	<g>
		<g>
			<path class="st6" d="M18.8,21.4c0-0.4,0.3-0.8,0.7-0.8c0.4,0,0.7,0.3,0.7,0.8c0,0.4-0.3,0.8-0.7,0.8
				C19.1,22.1,18.8,21.8,18.8,21.4z"/>
		</g>
		<g>
			<path class="st6" d="M21.3,21.4c0-0.4,0.3-0.8,0.7-0.8c0.4,0,0.7,0.3,0.7,0.8c0,0.4-0.3,0.8-0.7,0.8
				C21.6,22.1,21.3,21.8,21.3,21.4z"/>
		</g>
		<g>
			<path class="st6" d="M23.8,21.4c0-0.4,0.3-0.8,0.7-0.8c0.4,0,0.7,0.3,0.7,0.8c0,0.4-0.3,0.8-0.7,0.8
				C24.1,22.1,23.8,21.8,23.8,21.4z"/>
		</g>
	</g>
</g>
</svg>
